<svg width="150" height="71" viewBox="0 0 150 71" fill="none" xmlns="http://www.w3.org/2000/svg">
<path d="M0 19.1447H11.1787C13.1496 19.1447 14.9216 19.3259 16.497 19.6635C18.0701 20.0146 19.4351 20.5854 20.5562 21.3896C21.6726 22.1781 22.5745 23.2314 23.1779 24.4593C23.7859 25.7051 24.0887 27.2002 24.0887 28.9537C24.0887 30.8385 23.7316 32.4106 23.0311 33.6816C22.3425 34.9346 21.3507 35.994 20.1471 36.7624C18.8502 37.5805 17.4171 38.1575 15.9161 38.466C14.3023 38.8171 12.5936 38.9847 10.781 38.9847H6.08442V53.0075H0V19.1425V19.1447ZM10.3583 33.9307C11.3505 33.9307 12.3179 33.865 13.2152 33.711C14.0572 33.5823 14.8739 33.3225 15.6357 32.9407C16.3522 32.5783 16.9082 32.0708 17.3309 31.4343C17.7536 30.7978 17.9638 29.9664 17.9638 28.9401C17.9638 27.9524 17.7536 27.146 17.3309 26.523C16.909 25.9019 16.3345 25.4003 15.6629 25.0664C14.9191 24.7016 14.1176 24.4693 13.2943 24.3799C12.3859 24.2639 11.4707 24.2071 10.5549 24.21H6.09798V33.9171H10.3583V33.9307ZM40.9451 50.0965H40.7981C40.2172 51.1226 39.277 51.954 37.9955 52.602C36.6981 53.252 35.2427 53.5896 33.5882 53.5896C32.6031 53.5858 31.6221 53.4641 30.6659 53.2272C29.6692 52.9967 28.7205 52.5926 27.8633 52.0334C26.9987 51.4688 26.2706 50.718 25.7319 49.8359C25.1623 48.9275 24.8866 47.7971 24.8866 46.456C24.8866 44.7298 25.3747 43.3637 26.367 42.3376C27.3592 41.3113 28.6159 40.5321 30.164 39.9997C31.8342 39.4321 33.5668 39.07 35.324 38.9214C37.1658 38.7533 39.0142 38.6662 40.8637 38.6608V38.09C40.8637 36.6628 40.3393 35.5958 39.2928 34.9071C38.2465 34.2162 36.9898 33.8786 35.5342 33.8786C34.3162 33.8811 33.1127 34.1436 32.0039 34.6489C30.9659 35.0967 30.0153 35.7256 29.1967 36.5064L26.1908 33.011C27.5175 31.7993 29.0762 30.8706 30.772 30.2812C32.4579 29.6811 34.2334 29.3731 36.0225 29.3706C38.0882 29.3706 39.7947 29.656 41.1303 30.2268C42.4661 30.8 43.5262 31.5522 44.3058 32.4763C45.0857 33.3984 45.6145 34.4382 45.9332 35.5799C46.2361 36.7239 46.3944 37.8816 46.3944 39.0256V52.9938H40.9699L40.9473 50.0942L40.9451 50.0965ZM40.8523 42.5323H39.5414C38.6035 42.5323 37.6226 42.5732 36.592 42.6502C35.6239 42.721 34.6661 42.8957 33.7352 43.1712C32.8605 43.4431 32.1349 43.819 31.5519 44.3129C30.971 44.8068 30.6795 45.4819 30.6795 46.3518C30.6795 46.8978 30.7969 47.3531 31.05 47.7155C31.2874 48.0803 31.6039 48.3792 31.988 48.6013C32.3722 48.821 32.8085 48.9774 33.2989 49.0838C33.7894 49.1744 34.264 49.2265 34.7523 49.2265C36.7502 49.2265 38.2736 48.7055 39.3041 47.652C40.3348 46.5987 40.8501 45.158 40.8501 43.3502V42.5347L40.8523 42.5323ZM48.0871 30.0456H54.5287L61.0107 46.7414H61.1035L66.8577 30.0456H72.9037L61.9103 57.9301C61.5324 58.894 61.0821 59.8277 60.5633 60.7232C60.0863 61.5434 59.501 62.2184 58.8139 62.7757C58.106 63.3535 57.292 63.7867 56.418 64.0511C55.5072 64.3365 54.3953 64.4792 53.1002 64.4792C52.612 64.4792 52.1215 64.4522 51.6176 64.4113C51.1056 64.3626 50.598 64.2764 50.0987 64.1531L50.5733 59.1761C50.9576 59.3075 51.3418 59.398 51.7125 59.4365C52.0832 59.4865 52.4244 59.5045 52.7566 59.5045C53.2818 59.5205 53.8056 59.4446 54.3048 59.2803C54.7275 59.1376 55.0846 58.9177 55.3626 58.6029C55.6564 58.304 55.905 57.9301 56.1447 57.4883C56.3662 57.0467 56.6035 56.512 56.8723 55.9162L58.034 52.9938L48.0894 30.0456H48.0871ZM133.996 0H95.2116C86.3743 0 79.2027 7.08384 79.2027 15.8303V54.1741C79.2027 62.9184 86.3721 70 95.2091 70H133.993C142.83 70 150 62.9184 150 54.1741V15.8168C150 7.08384 142.834 0.00445453 133.996 0.00445453V0ZM109.206 17.0243L111.218 16.775C111.387 16.7637 115.435 16.2858 120.134 17.2575C126.627 18.61 131.22 22.0511 133.428 27.2252L129.209 28.9786C126.203 21.9243 117.686 21.1314 113.783 21.1564V42.1427H109.206V17.0243ZM94.7595 19.8945C94.7595 18.0256 96.2963 16.519 98.1859 16.519C100.078 16.519 101.612 18.0256 101.612 19.8945C101.612 21.7657 100.078 23.2744 98.1859 23.2744C97.7394 23.2787 97.2962 23.1945 96.8823 23.0267C96.4682 22.859 96.0913 22.6111 95.7729 22.2971C95.4546 21.9832 95.2013 21.6093 95.0274 21.197C94.8535 20.7847 94.7623 20.3422 94.7595 19.8945ZM134.552 39.1524C134.301 40.7518 133.931 42.1925 133.455 43.3117C130.36 50.5087 123.122 54.1606 111.973 54.1606H95.7246V29.1894H100.304V49.6411H111.959C121.097 49.6411 126.921 46.9113 129.222 41.5469C129.485 40.9217 129.724 40.0903 129.895 39.1547H126.099L132.635 31.0447L139.182 39.1683L134.552 39.1524Z" fill="black"/>
</svg>
